<svg xmlns="http://www.w3.org/2000/svg" width="1685.115" height="1658.978" viewBox="0 0 1685.115 1658.978">
  <g id="Group_113" data-name="Group 113" transform="translate(-9979.177 -7149.694)">
    <g id="noun_Health_1331982" transform="translate(9963.234 7146.494)">
      <g id="Group_112" data-name="Group 112" transform="translate(15.943 3.2)">
        <path id="Path_103" data-name="Path 103" d="M585.2,36.2c-51.4,0-104.572,19.5-143.565,58.49L407.96,128.365,374.284,94.69C335.291,55.7,282.119,36.2,230.719,36.2c-53.172,0-106.345,21.269-147.11,62.034C7.4,177.993,10.94,305.607,90.7,385.365l294.22,294.22c12.407,12.407,35.448,12.407,47.855,0L728.767,383.593c79.759-79.759,79.759-207.372,0-287.131C688,55.7,636.6,36.2,585.2,36.2Z" transform="translate(434.811 548.696)" fill="#ee466e"/>
        <path id="Path_104" data-name="Path 104" d="M100.172,366.544c30.131,0,53.172-23.041,53.172-53.172v-257C153.345,26.241,130.3,3.2,100.172,3.2S47,26.241,47,56.372v257C47,343.5,70.041,366.544,100.172,366.544Z" transform="translate(742.599 -3.2)" fill="#ee466e"/>
        <path id="Path_105" data-name="Path 105" d="M269.226,304.019c23.041-19.5,24.814-53.172,7.09-74.441L111.481,32.84C91.985,9.8,58.309,8.026,37.04,25.75,14,45.247,12.226,78.923,29.95,100.192L194.785,296.929c10.634,12.407,24.814,19.5,40.765,19.5C247.957,316.426,260.364,311.109,269.226,304.019Z" transform="translate(258.056 174.532)" fill="#ee466e"/>
        <path id="Path_106" data-name="Path 106" d="M309.953,190.309c24.814,0,47.855-17.724,51.4-44.31,5.317-28.359-14.179-56.717-42.538-62.034L65.36,41.426C37,36.109,8.643,55.605,3.326,83.964S17.505,140.681,45.864,146l255.227,44.31Z" transform="translate(-2.451 621.456)" fill="#ee466e"/>
        <path id="Path_107" data-name="Path 107" d="M255.733,70.485,34.182,199.871C9.368,214.051.506,247.726,14.685,272.54c10.634,17.724,28.359,26.586,46.083,26.586a50.017,50.017,0,0,0,26.586-7.09L310.678,162.651c24.814-14.179,33.676-47.855,19.5-72.669A56.417,56.417,0,0,0,255.733,70.485Z" transform="translate(88.99 1008.914)" fill="#ee466e"/>
        <path id="Path_108" data-name="Path 108" d="M191,80.732c-28.359-10.634-58.49,3.545-67.352,31.9L35.032,353.683c-10.634,28.359,3.545,58.49,31.9,67.352,5.317,1.772,12.407,3.545,17.724,3.545,21.269,0,42.538-14.179,49.628-35.448l88.621-241.048C233.542,119.725,219.362,89.594,191,80.732Z" transform="translate(483.388 1234.398)" fill="#ee466e"/>
        <path id="Path_109" data-name="Path 109" d="M160.287,112.635c-10.634-28.359-40.766-42.538-67.352-31.9C64.576,91.366,50.4,121.5,61.032,148.083l88.621,241.048c7.09,21.269,28.359,35.448,49.628,35.448,5.317,0,12.407-1.772,17.724-3.545,28.359-10.634,42.538-40.766,31.9-67.352Z" transform="translate(918.215 1234.398)" fill="#ee466e"/>
        <path id="Path_110" data-name="Path 110" d="M376.278,199.871,152.954,70.485c-24.814-14.179-58.49-5.317-72.669,19.5s-5.317,58.49,19.5,72.669L323.106,292.037a50.017,50.017,0,0,0,26.586,7.09c17.724,0,35.448-8.862,46.083-26.586C411.726,245.954,402.864,214.051,376.278,199.871Z" transform="translate(1186.092 1008.914)" fill="#ee466e"/>
        <path id="Path_111" data-name="Path 111" d="M436.153,83.964c-5.317-28.359-31.9-47.855-62.034-42.538L120.664,85.736c-28.358,5.317-47.855,31.9-42.538,62.034,5.317,26.586,26.586,44.31,51.4,44.31h8.862L391.843,146C421.974,140.681,439.7,112.322,436.153,83.964Z" transform="translate(1248.513 621.456)" fill="#ee466e"/>
        <path id="Path_112" data-name="Path 112" d="M318.717,26.341C295.675,6.845,262,10.39,244.276,33.431L79.441,230.169c-19.5,23.041-15.952,56.717,7.09,74.441,10.634,8.862,21.269,12.407,33.676,12.407,15.952,0,30.131-7.09,40.766-19.5L325.807,100.783C343.531,79.514,339.986,45.838,318.717,26.341Z" transform="translate(1073.502 172.169)" fill="#ee466e"/>
      </g>
    </g>
    <g id="noun_Health_2553945" transform="translate(10577 9265.093)">
      <path id="Path_113" data-name="Path 113" d="M29.8,75.232A20.892,20.892,0,0,0,8.907,96.126V136.6A20.89,20.89,0,0,0,29.8,157.492H75.229v45.432a20.9,20.9,0,0,0,20.894,20.894H136.6a20.892,20.892,0,0,0,20.891-20.894V157.489h45.432A20.889,20.889,0,0,0,223.814,136.6V96.123a20.891,20.891,0,0,0-20.893-20.894H157.489V29.8A20.888,20.888,0,0,0,136.6,8.907H96.123A20.891,20.891,0,0,0,75.229,29.8V75.229H29.8Z" transform="translate(128.139 -1343.862)" fill="#fff"/>
    </g>
  </g>
</svg>
